<?xml version="1.0" encoding="utf-8"?>
<!-- Generator: Adobe Illustrator 17.1.0, SVG Export Plug-In . SVG Version: 6.00 Build 0)  -->
<!DOCTYPE svg PUBLIC "-//W3C//DTD SVG 1.1//EN" "http://www.w3.org/Graphics/SVG/1.1/DTD/svg11.dtd">
<svg version="1.1" id="Layer_1" xmlns="http://www.w3.org/2000/svg" xmlns:xlink="http://www.w3.org/1999/xlink" x="0px" y="0px"
	 viewBox="0 0 496.8 119.9" enable-background="new 0 0 496.8 119.9" xml:space="preserve">
<g id="Layer_2" display="none">
	<rect x="-140.6" y="-237" display="inline" fill="#3D9970" width="792" height="612"/>
</g>
<g>
	<path fill="#EEEEEE" d="M161.7,16.8l-0.6,2.8l-1.1,0.2c-6.1-3.1-12.8-4.4-17.6-4.4c-15.9,0-24.6,11.7-24.6,21.8
		c0,24.3,47.4,20.7,47.4,49.6c0,13.9-12,25.9-29,25.9c-7.8,0-17-2.5-23.7-7.3l0.2-3l0.8-0.3c6.6,5.1,15.4,7.5,22.6,7.5
		c16.1,0,26.1-11.5,26.1-22.8c0-25.7-47.4-21.8-47.4-50.1c0-13.4,11.4-24.5,28.1-24.5C147.5,12.3,154.4,13.4,161.7,16.8z"/>
	<path fill="#EEEEEE" d="M226.5,47.4l-1.1,2.7h-0.9c-4.4-3.3-11.4-6.1-18.1-6.1c-14.8,0-24.5,13.1-24.5,33.5
		c0,19.5,9.5,32.3,24.5,32.3c6.9,0,14.5-2.7,19.8-6.7l0.9,0.3l-0.3,2.8c-5.3,3.9-12.9,6.7-20.6,6.7c-16.7,0-27.5-14-27.5-35.4
		c0-22.3,10.9-36.7,27.6-36.7C213.6,40.9,221.4,43.5,226.5,47.4z"/>
	<path fill="#EEEEEE" d="M271.4,41.9v3l-0.8,0.3c-1.6-0.3-3.1-0.5-4.2-0.5c-7.2,0-13.9,6.4-21.1,20.4v47h-3.1v-70l3.1-0.6v17.3h0.6
		c6.4-11.7,13.1-17.2,21.2-17.2C268.6,41.6,270.3,41.8,271.4,41.9z"/>
	<path fill="#EEEEEE" d="M322.6,58.5c0,3.9-1.6,38.2-1.6,42.3c0,6.1,1.7,8.7,5.6,8.7c2,0,4.7-0.8,6.6-2.3l0.9,0.5l-0.6,2.8
		c-2,1.4-4.4,2.2-7,2.2c-5.6,0-8.4-3.3-8.6-11.9h-0.5c-6.1,7.2-13.6,11.9-20.4,12.2c-11.2,0-17.6-6.4-17.6-17.5
		c0-7.6,4.8-12.9,12.8-14.8l26.8-6.2l0.5-15.3c0-9.7-5.5-15.1-15.4-15.1c-6.2,0-13.9,3.6-21.4,10.1l-0.9-0.3l-0.8-2.3
		c7.8-6.9,16.1-10.6,23.2-10.6C316.1,40.9,322.6,47.3,322.6,58.5z M293,83.8c-6.7,1.6-10.5,5.6-10.5,11.7c0,9,5.3,14.4,14.4,14.4
		c6.9,0,14.7-5.3,21.2-14.2l0.8-17.9L293,83.8z"/>
	<path fill="#EEEEEE" d="M376.4,105.6l0.6,0.5l-0.3,2.8c-4.4,2.5-8.9,3.9-12.5,3.9c-9.4,0-14.7-6.6-14.7-18.1V44.8h-9.7l-0.6-0.6
		l0.5-2.5h9.8V24.8l2.5-0.9l0.6,0.5v17.3h24.2l0.5,0.6l-0.5,2.5h-24.2v49.8c0,9.7,4.1,15.1,11.5,15.1
		C368,109.7,372.4,108.2,376.4,105.6z"/>
	<path fill="#EEEEEE" d="M432.4,47.4l-1.1,2.7h-0.9c-4.4-3.3-11.4-6.1-18.1-6.1c-14.8,0-24.5,13.1-24.5,33.5
		c0,19.5,9.5,32.3,24.5,32.3c6.9,0,14.5-2.7,19.8-6.7l0.9,0.3l-0.3,2.8c-5.3,3.9-12.9,6.7-20.6,6.7c-16.7,0-27.5-14-27.5-35.4
		c0-22.3,10.9-36.7,27.6-36.7C419.4,40.9,427.2,43.5,432.4,47.4z"/>
	<path fill="#EEEEEE" d="M496.8,62.1l-0.2,19.8l-0.2,30.3h-3.1l0.3-49.9c0-11.5-6.4-18.3-17.3-18.3c-8.1,0-17.2,5.6-25,15v53.2h-3.1
		V3.3l3.1-0.6v51.2h0.6c7.6-8.3,16.5-12.9,24.3-12.9C489.5,40.9,497,48.7,496.8,62.1z"/>
</g>
<g>
	<g>
		<path fill="#EEEEEE" d="M53.7,0L39.1,119.9h-7L46.7,0H53.7z"/>
	</g>
	<g>
		<path fill="#EEEEEE" d="M33.7,119.9H0V0h43.5l-0.8,6.3H6.6v107.2h27.9L33.7,119.9z"/>
	</g>
	<g>
		<path fill="#EEEEEE" d="M51.9,0l33.6,0v119.9H42l0.8-6.3h36.1V6.4H51L51.9,0z"/>
	</g>
</g>
<g>
</g>
<g>
</g>
<g>
</g>
<g>
</g>
<g>
</g>
<g>
</g>
</svg>
