<?xml version="1.0" encoding="utf-8"?>
<!-- Generator: Adobe Illustrator 22.1.0, SVG Export Plug-In . SVG Version: 6.00 Build 0)  -->
<svg version="1.1" id="Layer_1" xmlns="http://www.w3.org/2000/svg" xmlns:xlink="http://www.w3.org/1999/xlink" x="0px" y="0px"
	 viewBox="0 0 18 18" style="enable-background:new 0 0 18 18;" xml:space="preserve">
<style type="text/css">
	.st0{fill:none;}
	.st1{fill:#FFFFFF;}
	.st2{fill:url(#SVGID_1_);}
</style>
<pattern  x="-141" y="-141" width="18" height="18" patternUnits="userSpaceOnUse" id="New_Pattern_Swatch_2" viewBox="1.5 -19.5 18 18" style="overflow:visible;">
	<g>
		<rect x="1.5" y="-19.5" class="st0" width="18" height="18"/>
		<path class="st1" d="M15,0L15,0c-0.8,0-1.5-0.7-1.5-1.5v0C13.5-2.3,14.2-3,15-3h0c0.8,0,1.5,0.7,1.5,1.5v0C16.5-0.7,15.8,0,15,0z"
			/>
		<path class="st1" d="M6,0L6,0C5.2,0,4.5-0.7,4.5-1.5v0C4.5-2.3,5.2-3,6-3h0c0.8,0,1.5,0.7,1.5,1.5v0C7.5-0.7,6.8,0,6,0z"/>
		<path class="st1" d="M19.5-9L19.5-9C18.7-9,18-9.7,18-10.5v0c0-0.8,0.7-1.5,1.5-1.5h0c0.8,0,1.5,0.7,1.5,1.5v0
			C21-9.7,20.3-9,19.5-9z"/>
		<path class="st1" d="M10.5-9L10.5-9C9.7-9,9-9.7,9-10.5v0c0-0.8,0.7-1.5,1.5-1.5h0c0.8,0,1.5,0.7,1.5,1.5v0C12-9.7,11.3-9,10.5-9z
			"/>
		<path class="st1" d="M1.5-9L1.5-9C0.7-9,0-9.7,0-10.5l0,0C0-11.3,0.7-12,1.5-12h0C2.3-12,3-11.3,3-10.5v0C3-9.7,2.3-9,1.5-9z"/>
		<path class="st1" d="M15-18L15-18c-0.8,0-1.5-0.7-1.5-1.5v0c0-0.8,0.7-1.5,1.5-1.5h0c0.8,0,1.5,0.7,1.5,1.5v0
			C16.5-18.7,15.8-18,15-18z"/>
		<path class="st1" d="M6-18L6-18c-0.8,0-1.5-0.7-1.5-1.5v0C4.5-20.3,5.2-21,6-21h0c0.8,0,1.5,0.7,1.5,1.5v0C7.5-18.7,6.8-18,6-18z"
			/>
	</g>
</pattern>
<pattern  id="SVGID_1_" xlink:href="#New_Pattern_Swatch_2" patternTransform="matrix(1 0 0 1 -3 0)">
</pattern>
<rect x="0" class="st2" width="18" height="18"/>
</svg>
