<svg xmlns="http://www.w3.org/2000/svg" xmlns:xlink="http://www.w3.org/1999/xlink" viewBox="0 0 203.6 219.82"><defs><style>.cls-1{fill:none;}.cls-2{fill:#fff;}.cls-3{fill:#fad74a;}.cls-4{fill:url(#Whide_square_grid);}</style><pattern id="Whide_square_grid" data-name="Whide square grid" width="20" height="20" patternTransform="translate(543.36 636.22) rotate(-2.24)" patternUnits="userSpaceOnUse" viewBox="0 0 20 20"><rect class="cls-1" width="20" height="20"/><rect class="cls-2" x="13.5" y="18.5" width="3" height="3" rx="1.5" ry="1.5"/><rect class="cls-2" x="3.5" y="18.5" width="3" height="3" rx="1.5" ry="1.5"/><rect class="cls-2" x="18.5" y="8.5" width="3" height="3" rx="1.5" ry="1.5"/><rect class="cls-2" x="8.5" y="8.5" width="3" height="3" rx="1.5" ry="1.5"/><rect class="cls-2" x="-1.5" y="8.5" width="3" height="3" rx="1.5" ry="1.5"/><rect class="cls-2" x="13.5" y="-1.5" width="3" height="3" rx="1.5" ry="1.5"/><rect class="cls-2" x="3.5" y="-1.5" width="3" height="3" rx="1.5" ry="1.5"/></pattern></defs><title>yellow</title><g id="Layer_2" data-name="Layer 2"><g id="Blocks"><polygon id="Triangle" class="cls-3" points="114.86 5.12 203.6 203.45 10.73 219.82 114.86 5.12"/><polygon id="Triangle-2" data-name="Triangle" class="cls-4" points="95.67 0 192.08 194.72 0 218.61 95.67 0"/></g></g></svg>