<svg xmlns="http://www.w3.org/2000/svg" viewBox="0 0 412.62 260.52"><defs><style>.cls-1{fill:none;stroke:#fff;stroke-miterlimit:10;stroke-width:2px;}.cls-2{fill:#f82aaa;}</style></defs><title>pink</title><g id="Layer_2" data-name="Layer 2"><g id="Blocks"><g id="zig-zags"><g id="zig-zag"><polyline class="cls-1" points="23.74 0.58 35.46 16.88 55.44 14.95 67.16 31.24 87.13 29.32 98.85 45.61 118.83 43.69 130.56 59.98 150.54 58.06 162.26 74.35"/></g><g id="zig-zag-2" data-name="zig-zag"><polyline class="cls-1" points="18.29 12.61 30.01 28.9 49.98 26.98 61.7 43.27 81.68 41.35 93.4 57.64 113.38 55.72 125.1 72.01 145.09 70.09 156.81 86.38"/></g><g id="zig-zag-3" data-name="zig-zag"><polyline class="cls-1" points="12.84 24.64 24.55 40.93 44.53 39.01 56.25 55.3 76.23 53.38 87.95 69.67 107.93 67.74 119.65 84.04 139.63 82.11 151.36 98.41"/></g></g><polygon id="Eye_bg" class="cls-2" points="0 85.88 37.95 260.52 377.16 182.49 412.62 30.14 0 85.88"/></g></g></svg>