<svg xmlns="http://www.w3.org/2000/svg" xmlns:xlink="http://www.w3.org/1999/xlink" viewBox="0 0 198.15 186.14"><defs><style>.cls-1{fill:none;}.cls-2{fill:#fff;}.cls-3{fill:#0abac7;}.cls-4{fill:url(#Whide_square_grid);}</style><pattern id="Whide_square_grid" data-name="Whide square grid" width="20" height="20" patternTransform="translate(-79.5 266)" patternUnits="userSpaceOnUse" viewBox="0 0 20 20"><rect class="cls-1" width="20" height="20"/><rect class="cls-2" x="13.5" y="18.5" width="3" height="3" rx="1.5" ry="1.5"/><rect class="cls-2" x="3.5" y="18.5" width="3" height="3" rx="1.5" ry="1.5"/><rect class="cls-2" x="18.5" y="8.5" width="3" height="3" rx="1.5" ry="1.5"/><rect class="cls-2" x="8.5" y="8.5" width="3" height="3" rx="1.5" ry="1.5"/><rect class="cls-2" x="-1.5" y="8.5" width="3" height="3" rx="1.5" ry="1.5"/><rect class="cls-2" x="13.5" y="-1.5" width="3" height="3" rx="1.5" ry="1.5"/><rect class="cls-2" x="3.5" y="-1.5" width="3" height="3" rx="1.5" ry="1.5"/></pattern></defs><title>blueTriangleDots</title><g id="Layer_2" data-name="Layer 2"><g id="Blocks"><polygon class="cls-3" points="0 186.13 184.64 9.33 198.16 125.33 0 186.13"/><polygon class="cls-4" points="0 186.13 175.23 0 194.74 115.14 0 186.13"/></g></g></svg>